<?xml version="1.0" encoding="UTF-8" standalone="no"?>
<!DOCTYPE svg PUBLIC "-//W3C//DTD SVG 1.1//EN"
 "http://www.w3.org/Graphics/SVG/1.1/DTD/svg11.dtd">
<!-- Generated by graphviz version 2.43.0 (0)
 -->
<!-- Title: responsibility Pages: 1 -->
<svg width="727pt" height="227pt"
 viewBox="0.00 0.00 726.60 226.60" xmlns="http://www.w3.org/2000/svg" xmlns:xlink="http://www.w3.org/1999/xlink">
<g id="graph0" class="graph" transform="scale(1 1) rotate(0) translate(10.8 215.8)">
<title>responsibility</title>
<polygon fill="#ffffff" stroke="transparent" points="-10.8,10.8 -10.8,-215.8 715.8,-215.8 715.8,10.8 -10.8,10.8"/>
<text text-anchor="middle" x="352.5" y="-7.8" font-family="DejaVu Sans" font-size="14.00" fill="#304e62">Functional paths · physical routes remain to be assigned</text>
<!-- source -->
<g id="node1" class="node">
<title>source</title>
<path fill="#eff5fa" stroke="#304e62" stroke-width="1.25" d="M103,-144C103,-144 12,-144 12,-144 6,-144 0,-138 0,-132 0,-132 0,-94 0,-94 0,-88 6,-82 12,-82 12,-82 103,-82 103,-82 109,-82 115,-88 115,-94 115,-94 115,-132 115,-132 115,-138 109,-144 103,-144"/>
<text text-anchor="middle" x="57.5" y="-119" font-family="DejaVu Sans" font-size="20.00" fill="#1c2834">Source</text>
<text text-anchor="middle" x="57.5" y="-97" font-family="DejaVu Sans" font-size="20.00" fill="#1c2834">Condition</text>
</g>
<!-- dps -->
<g id="node2" class="node">
<title>dps</title>
<path fill="#fdf0e9" stroke="#304e62" stroke-width="1.25" d="M366.5,-205C366.5,-205 217.5,-205 217.5,-205 211.5,-205 205.5,-199 205.5,-193 205.5,-193 205.5,-155 205.5,-155 205.5,-149 211.5,-143 217.5,-143 217.5,-143 366.5,-143 366.5,-143 372.5,-143 378.5,-149 378.5,-155 378.5,-155 378.5,-193 378.5,-193 378.5,-199 372.5,-205 366.5,-205"/>
<text text-anchor="middle" x="292" y="-180" font-family="DejaVu Sans" font-size="20.00" fill="#1c2834">DPS / local</text>
<text text-anchor="middle" x="292" y="-158" font-family="DejaVu Sans" font-size="20.00" fill="#1c2834">Protection logic</text>
</g>
<!-- source&#45;&gt;dps -->
<g id="edge1" class="edge">
<title>source&#45;&gt;dps</title>
<path fill="none" stroke="#1c2834" stroke-width="1.25" d="M115.08,-127.84C139.9,-134.36 169.69,-142.17 197.65,-149.51"/>
<polygon fill="#1c2834" stroke="#1c2834" stroke-width="1.25" points="197.03,-152.24 205.48,-151.56 198.45,-146.82 197.03,-152.24"/>
<text text-anchor="middle" x="151.5" y="-144.8" font-family="DejaVu Sans" font-size="14.00" fill="#1c2834">input</text>
</g>
<!-- sc -->
<g id="node4" class="node">
<title>sc</title>
<path fill="#eff5fa" stroke="#304e62" stroke-width="1.25" d="M384,-85C384,-85 200,-85 200,-85 194,-85 188,-79 188,-73 188,-73 188,-35 188,-35 188,-29 194,-23 200,-23 200,-23 384,-23 384,-23 390,-23 396,-29 396,-35 396,-35 396,-73 396,-73 396,-79 390,-85 384,-85"/>
<text text-anchor="middle" x="292" y="-60" font-family="DejaVu Sans" font-size="20.00" fill="#1c2834">Slow Controls</text>
<text text-anchor="middle" x="292" y="-38" font-family="DejaVu Sans" font-size="20.00" fill="#1c2834">Monitor / configure</text>
</g>
<!-- source&#45;&gt;sc -->
<g id="edge3" class="edge">
<title>source&#45;&gt;sc</title>
<path fill="none" stroke="#1c2834" stroke-width="1.25" d="M115.08,-98.64C134.68,-93.67 157.38,-87.91 179.83,-82.21"/>
<polygon fill="#1c2834" stroke="#1c2834" stroke-width="1.25" points="180.69,-84.88 187.76,-80.2 179.31,-79.45 180.69,-84.88"/>
<text text-anchor="middle" x="151.5" y="-97.8" font-family="DejaVu Sans" font-size="14.00" fill="#1c2834">status</text>
</g>
<!-- equipment -->
<g id="node3" class="node">
<title>equipment</title>
<path fill="#eff5fa" stroke="#304e62" stroke-width="1.25" d="M693,-145C693,-145 540,-145 540,-145 534,-145 528,-139 528,-133 528,-133 528,-95 528,-95 528,-89 534,-83 540,-83 540,-83 693,-83 693,-83 699,-83 705,-89 705,-95 705,-95 705,-133 705,-133 705,-139 699,-145 693,-145"/>
<text text-anchor="middle" x="616.5" y="-120" font-family="DejaVu Sans" font-size="20.00" fill="#1c2834">Subsystem</text>
<text text-anchor="middle" x="616.5" y="-98" font-family="DejaVu Sans" font-size="20.00" fill="#1c2834">Action endpoint</text>
</g>
<!-- dps&#45;&gt;equipment -->
<g id="edge2" class="edge">
<title>dps&#45;&gt;equipment</title>
<path fill="none" stroke="#1c2834" stroke-width="1.25" d="M386.51,-156.6C428.37,-148.82 477.67,-139.64 519.79,-131.81"/>
<polygon fill="#1c2834" stroke="#1c2834" stroke-width="1.25" points="385.93,-153.86 378.58,-158.08 386.95,-159.37 385.93,-153.86"/>
<polygon fill="#1c2834" stroke="#1c2834" stroke-width="1.25" points="520.48,-134.53 527.84,-130.31 519.46,-129.02 520.48,-134.53"/>
<text text-anchor="middle" x="462" y="-169.8" font-family="DejaVu Sans" font-size="14.00" fill="#1c2834">action /</text>
<text text-anchor="middle" x="462" y="-154.8" font-family="DejaVu Sans" font-size="14.00" fill="#1c2834">feedback</text>
</g>
<!-- dps&#45;&gt;sc -->
<g id="edge4" class="edge">
<title>dps&#45;&gt;sc</title>
<path fill="none" stroke="#1c2834" stroke-width="1.25" d="M292,-142.94C292,-127.82 292,-109.48 292,-93.4"/>
<polygon fill="#1c2834" stroke="#1c2834" stroke-width="1.25" points="294.8,-93.22 292,-85.22 289.2,-93.22 294.8,-93.22"/>
<text text-anchor="middle" x="281.5" y="-110.3" font-family="DejaVu Sans" font-size="14.00" fill="#1c2834">DPS status</text>
</g>
<!-- sc&#45;&gt;equipment -->
<g id="edge5" class="edge">
<title>sc&#45;&gt;equipment</title>
<path fill="none" stroke="#1c2834" stroke-width="1.25" d="M404.39,-74.72C441.94,-81.71 483.5,-89.44 519.74,-96.18"/>
<polygon fill="#1c2834" stroke="#1c2834" stroke-width="1.25" points="404.75,-71.94 396.37,-73.23 403.72,-77.45 404.75,-71.94"/>
<polygon fill="#1c2834" stroke="#1c2834" stroke-width="1.25" points="519.49,-98.99 527.87,-97.7 520.51,-93.48 519.49,-98.99"/>
<text text-anchor="middle" x="462" y="-113.8" font-family="DejaVu Sans" font-size="14.00" fill="#1c2834">configuration /</text>
<text text-anchor="middle" x="462" y="-98.8" font-family="DejaVu Sans" font-size="14.00" fill="#1c2834">status</text>
</g>
</g>
</svg>
